<?xml version="1.0" encoding="UTF-8"?>
<svg width="240mm" height="240mm" version="1.1" viewBox="0 0 240 240" xmlns="http://www.w3.org/2000/svg">
 <g transform="matrix(.26458 0 0 .26458 -333.16 -28.669)">
  <g fill="#fff">
   <path d="m1792 530.8h-158.1c5.6 13.4 19 21.1 22.9 23.1h112.3c3.8-2 17.2-9.7 22.9-23.1z"/>
   <path d="m1815.4 730.1c-26-43.1-58.1-96.4-59.9-164.4h-85c-1.8 67.9-33.9 121.3-59.9 164.4-15.4 25.5-28.6 47.5-30.5 65-3.5 32.2 13.7 42.5 17.7 44.5h230.4c4.1-2 21.2-12.3 17.7-44.5-1.9-17.5-15.2-39.5-30.5-65z"/>
   <path d="m1823.8 519c-1.9-13.8-9.5-28.8-22.6-44.5h-176.5c-13.2 15.8-20.8 30.7-22.6 44.5h197.8z"/>
   <path d="m1776.8 462.6c1.8-17.1 9.8-68.9 41.3-103.6-4.7-1.1-10.9-2-17.5-2.1h-0.7-0.4c-16.7 0.1-29 6.3-36.4 18.3-1 1.7-2.8 2.7-4.8 2.8s-3.8-0.8-5-2.3c-0.2-0.2-18.7-24.4-40.4-27.2-21.6 2.8-40.2 26.9-40.4 27.2-1.2 1.6-3.1 2.4-5 2.3-2-0.1-3.7-1.1-4.8-2.8-7.4-12-19.7-18.2-36.4-18.3h-0.4-0.7c-6.6 0-12.8 1-17.5 2.1 31.5 34.7 39.5 86.5 41.3 103.6z"/>
   <path d="m1668.2 362.6c8-8.6 24.5-23.8 44.1-25.9h1.3c19.6 2.1 36.1 17.3 44.1 25.9 8.5-9.9 20.4-15.8 35.1-17.2-3-12.6-12.6-40.9-40-53.8-6.5 15.6-21.9 26.6-39.8 26.6s-33.3-11-39.8-26.6c-27.5 13-37 41.2-40 53.8 14.6 1.5 26.5 7.3 35 17.2z"/>
   <path d="m1712.9 306.3c17.3 0 31.3-14 31.3-31.3s-14-31.3-31.3-31.3-31.3 14-31.3 31.3 14.1 31.3 31.3 31.3z"/>
   <rect x="1602.4" y="851.4" width="221" height="28.9"/>
  </g>
  <path d="m1825.5 724c-25.2-41.8-56.4-93.6-58.2-158.3h3.1c0.8 0 1.7-0.2 2.4-0.5 1.1-0.5 24.8-11.3 31.7-34.4h25.7c1.6 0 3.1-0.6 4.2-1.8 1.1-1.1 1.7-2.7 1.7-4.2-0.3-18.9-9.6-39.2-27.7-60.2-1.1-1.3-2.8-2.1-4.5-2.1h-15.2c2.2-18.2 11.2-71.8 44.6-102.2 1.5-1.4 2.2-3.5 1.8-5.5s-1.8-3.7-3.7-4.4c-0.5-0.2-12-4.5-26.6-5.3-2.7-13.5-13.2-49.7-49.1-65.3 0.2-1.6 0.3-3.2 0.3-4.9 0-23.8-19.4-43.2-43.2-43.2s-43.2 19.4-43.2 43.2c0 1.6 0.1 3.3 0.3 4.9-35.9 15.6-46.3 51.8-49.1 65.3-14.6 0.8-26.1 5.1-26.6 5.3-1.9 0.7-3.3 2.4-3.7 4.4s0.3 4.1 1.8 5.5c33.4 30.4 42.5 84 44.6 102.2h-15.2c-1.7 0-3.4 0.7-4.5 2.1-18.1 21-27.5 41.3-27.7 60.2 0 1.6 0.6 3.1 1.7 4.2s2.6 1.8 4.2 1.8h25.7c6.8 23.1 30.6 33.9 31.7 34.4 0.8 0.3 1.6 0.5 2.4 0.5h3.1c-1.8 64.7-33 116.5-58.2 158.3-16.1 26.7-30 49.7-32.1 69.8-3.9 36 14.1 50.6 22.4 55.3v37.1c0 3.3 2.7 5.9 5.9 5.9h232.9c3.3 0 5.9-2.7 5.9-5.9v-37.1c8.2-4.7 26.3-19.4 22.4-55.3-2-20.1-15.9-43.1-32-69.8zm-112.6-480.3c17.3 0 31.3 14 31.3 31.3s-14 31.3-31.3 31.3-31.3-14-31.3-31.3c0-17.2 14.1-31.3 31.3-31.3zm-39.8 47.9c6.5 15.6 21.9 26.6 39.8 26.6s33.3-11 39.8-26.6c27.4 13 37 41.2 40 53.8-14.7 1.4-26.6 7.3-35.1 17.2-8-8.6-24.5-23.8-44.1-25.9h-1.3c-19.6 2.1-36.1 17.3-44.1 25.9-8.5-9.9-20.4-15.8-35.1-17.2 3.1-12.6 12.6-40.8 40.1-53.8zm-65.3 67.4c4.7-1.1 10.9-2 17.5-2.1h0.7 0.4c16.7 0.1 29 6.3 36.4 18.3 1 1.7 2.8 2.7 4.8 2.8 1.9 0.1 3.8-0.8 5-2.3 0.2-0.2 18.7-24.4 40.4-27.2 21.6 2.8 40.2 26.9 40.4 27.2 1.2 1.6 3 2.5 5 2.3 2-0.1 3.7-1.1 4.8-2.8 7.4-12 19.7-18.2 36.4-18.3h0.4 0.7c6.6 0 12.8 1 17.5 2.1-31.5 34.7-39.5 86.5-41.3 103.6h-127.7c-1.9-17.1-9.9-68.9-41.4-103.6zm-5.8 160c1.9-13.8 9.5-28.8 22.6-44.5h176.5c13.2 15.8 20.8 30.7 22.6 44.5h-197.7zm54.8 34.9c-3.8-2-17.2-9.6-22.9-23.1h158.1c-5.6 13.3-19 21.1-22.9 23.1zm166.6 326.5h-221v-28.9h221zm4.7-40.8h-230.4c-4-1.9-21.2-12.3-17.7-44.5 1.9-17.5 15.2-39.5 30.5-65 26-43.1 58.1-96.4 59.9-164.4h85c1.8 67.9 33.9 121.3 59.9 164.4 15.4 25.5 28.6 47.5 30.5 65 3.6 32.1-13.5 42.5-17.7 44.5z"/>
 </g>
</svg>
