<?xml version="1.0" encoding="UTF-8"?>
<svg width="240mm" height="240mm" version="1.1" viewBox="0 0 240 240" xmlns="http://www.w3.org/2000/svg">
 <g transform="matrix(.26458 0 0 .26458 -427.7 -17.98)">
  <g fill="#fff">
   <path d="m2127.7 431.1c-1-2.8-2.3-6.2 16.3-76.2 6.4-24.1 13.1-48 16.4-59.7h-180.2c3.3 11.8 10 35.6 16.4 59.7 18.6 69.9 17.3 73.4 16.3 76.2-2 5.4-13.4 20.9-21.5 31.5h157.9c-8.1-10.6-19.5-26.1-21.6-31.5z"/>
   <path d="m2149.3 530.8h-158.1c5.6 13.4 19 21.1 22.9 23.1h112.3c3.9-2 17.3-9.7 22.9-23.1z"/>
   <path d="m2047 240.7c1.6 1.1 2.6 2.9 2.6 4.9v1.4c0 0.8-0.2 1.6-0.5 2.3l-14.2 34h70.6l-14.2-34c-0.3-0.7-0.5-1.5-0.5-2.3v-1c0-2 1-3.8 2.6-4.9s3.7-1.3 5.6-0.5l42.8 17.8v-70.6l-42.8 17.8c-1.8 0.8-3.9 0.6-5.6-0.5-1.6-1.1-2.6-2.9-2.6-4.9v-1.2c0-0.8 0.2-1.6 0.5-2.3l14.2-34h-70.5l14.2 34c0.9 2.2 0.4 4.8-1.3 6.5s-4.2 2.2-6.5 1.3l-41.8-17.4v70.6l41.8-17.4c1.8-0.9 3.9-0.6 5.6 0.4z"/>
   <path d="m2181.2 519c-1.9-13.8-9.5-28.8-22.6-44.5h-176.6c-13.2 15.8-20.8 30.7-22.6 44.5h197.8z"/>
   <path d="m2172.7 730.1c-26-43.1-58.1-96.4-59.9-164.4h-85c-1.8 67.9-33.9 121.3-59.9 164.4-15.4 25.5-28.6 47.5-30.5 65-3.5 32.2 13.7 42.5 17.7 44.5h230.4c4.1-2 21.2-12.3 17.7-44.5-1.9-17.5-15.1-39.5-30.5-65z"/>
   <rect x="1959.8" y="851.4" width="221" height="28.9"/>
  </g>
  <path d="m2182.9 724c-25.2-41.8-56.4-93.6-58.2-158.3h3.1c0.8 0 1.7-0.2 2.4-0.5 1.1-0.5 24.8-11.3 31.7-34.4h25.7c1.6 0 3.1-0.6 4.2-1.8 1.1-1.1 1.7-2.7 1.7-4.2-0.3-18.9-9.6-39.1-27.7-60.1-11.6-14.9-24.4-32.3-26.8-37.2 0.2-9.6 17.9-77 34.8-136.6 0.5-1.8 0.1-3.7-1-5.2s-2.9-2.4-4.7-2.4h-49.8l-11.1-26.7 38.3 16c1.8 0.8 3.9 0.6 5.6-0.5 1.6-1.1 2.6-2.9 2.6-4.9v-88.4c0-2-1-3.8-2.6-4.9s-3.7-1.3-5.6-0.5l-38.3 16 12.6-30.3c0.8-1.8 0.6-3.9-0.5-5.6-1.1-1.6-2.9-2.6-4.9-2.6h-88.4c-2 0-3.8 1-4.9 2.6s-1.3 3.7-0.5 5.6l12 28.9-36.7-15.3c-1.8-0.8-3.9-0.6-5.6 0.5-1.6 1.1-2.6 2.9-2.6 4.9v88.4c0 2 1 3.8 2.6 4.9s3.7 1.3 5.6 0.5l37.4-15.6-11.3 27h-49.8c-1.9 0-3.6 0.9-4.7 2.4s-1.5 3.4-1 5.2c16.9 59.6 34.7 126.9 34.8 136.6-2.3 4.9-15.1 22.3-26.8 37.2-18.1 21-27.4 41.2-27.7 60.1 0 1.6 0.6 3.1 1.7 4.2s2.6 1.8 4.2 1.8h25.7c6.8 23.1 30.6 33.9 31.7 34.4 0.8 0.3 1.6 0.5 2.4 0.5h3.1c-1.8 64.7-33 116.5-58.2 158.3-16.1 26.7-30 49.7-32.1 69.8-3.9 36 14.1 50.6 22.4 55.3v37.1c0 3.3 2.7 5.9 5.9 5.9h232.9c3.3 0 5.9-2.7 5.9-5.9v-37.1c8.2-4.7 26.3-19.4 22.4-55.3-2-20.1-15.9-43.1-31.9-69.8zm-183.2-466.4v-70.6l41.8 17.4c2.2 0.9 4.8 0.4 6.5-1.3s2.2-4.2 1.3-6.5l-14.2-34h70.6l-14.2 34c-0.3 0.7-0.5 1.5-0.5 2.3v1.2c0 2 1 3.8 2.6 4.9s3.7 1.3 5.6 0.5l42.8-17.8v70.6l-42.8-17.8c-1.8-0.8-3.9-0.6-5.6 0.5-1.6 1.1-2.6 2.9-2.6 4.9v1.2c0 0.8 0.2 1.6 0.5 2.3l14.2 34h-70.7l14.2-34c0.3-0.7 0.5-1.5 0.5-2.3v-1.4c0-2-1-3.8-2.6-4.9s-3.7-1.3-5.6-0.5zm13.2 173.5c1-2.8 2.3-6.3-16.3-76.2-6.4-24.1-13.1-48-16.4-59.7h180.2c-3.3 11.8-10 35.6-16.4 59.7-18.6 69.9-17.3 73.4-16.3 76.2 2 5.4 13.4 20.9 21.5 31.5h-157.9c8.1-10.6 19.5-26.1 21.6-31.5zm-53.5 87.9c1.9-13.8 9.5-28.8 22.6-44.5h176.5c13.2 15.8 20.8 30.7 22.6 44.5h-197.8zm54.8 34.9c-3.8-2-17.2-9.6-22.9-23.1h158.1c-5.6 13.3-19 21.1-22.9 23.1zm166.6 326.5h-221v-28.9h221zm4.7-40.8h-230.4c-4-1.9-21.2-12.3-17.7-44.5 1.9-17.5 15.2-39.5 30.5-65 26-43.1 58.1-96.4 59.9-164.4h85c1.8 67.9 33.9 121.3 59.9 164.4 15.4 25.5 28.6 47.5 30.5 65 3.5 32.1-13.6 42.5-17.7 44.5z"/>
 </g>
</svg>
