<?xml version="1.0" encoding="UTF-8"?>
<svg width="240mm" height="240mm" version="1.1" viewBox="0 0 240 240" xmlns="http://www.w3.org/2000/svg">
 <g transform="matrix(.26458 0 0 .26458 -229.09 -264.58)">
  <path d="m1443 1600.3c9.9 10.9 16.3 20.5 17.7 33.2 3.5 32.1-13.6 42.5-17.7 44.5h-230.4c-4.1-2-21.2-12.3-17.7-44.5 1.4-12.8 7.8-22.4 17.7-33.2z"/>
  <path d="m1184.6 1409.1c-0.2-4.2-0.6-8.8-0.9-13.8-3.5-49.6-9.4-132.6 45.6-175.1 59.9-46.3 126.8-30.1 135.7-25.7 3.1 3.8 6.1 24 7.8 35 0.6 3.7 1 7 1.5 9.8-29.1-13.5-57.2-7.8-70.5-3.7-1.2-10.6-4.9-18.9-11-24.6-9-8.4-19.9-7.8-20.4-7.8-2.6 0.2-4.8 2-5.4 4.6l-14 59.7c-8.5 6.8-42.3 36.9-38.5 89 2.1 28.6 12.7 52.4 22.1 73.4 9.3 20.8 17.4 38.7 15.5 56.8-3 29.2-30 54.9-40.3 63.8l-55.5-56.3c30.6-17.8 30.7-42.3 28.3-85.1z"/>
  <rect x="1217.3" y="1689.8" width="221" height="28.9"/>
  <path d="m1213.9 1588.4c-6.6-16.7 0.4-24.4 1.3-25.4 4-3.1 44.5-35.3 48.6-75.1 2.2-21.2-6.9-41.4-16.5-62.9-9.4-21.1-19.2-42.8-21.1-69.4-3.7-51.6 35-79.6 35.4-79.9 1.2-0.8 2-2.1 2.4-3.5l13.3-56.7c2.2 0.6 5 1.8 7.5 4.2 5 4.8 7.6 12.9 7.6 24.1 0 2 1 3.9 2.7 5s3.8 1.2 5.7 0.4c0.4-0.2 40.4-17.8 77.7 5.7 6.8 11.9 29.9 23.5 43.5 28.3 0.5 0.2 1.1 0.3 1.7 0.3 39.8 1.7 54.6 31.2 59.1 43.9 5.1 14.3 4.2 25.7 2.1 30.1h-34.2l-38.4-7.3c-3.2-0.6-6.3 1.5-6.9 4.7s1.5 6.3 4.7 6.9l33 6.3c-1.9 5.4-5.5 9.5-10.7 11.8-8.2 3.6-18.8 2-27-4-21.7-16-47-1.1-48.2-0.3-0.8 0.5-36.2 20.9-55.6 0.9-2.3-2.3-6-2.4-8.4-0.1-2.3 2.3-2.4 6-0.1 8.4 9.1 9.3 20.1 12.4 30.8 12.4 15 0 29.2-6.1 35.7-9.4 17.7 14.6 107.1 90.8 111.7 139 4.5 46.8-21.8 59.7-26.5 61.6z"/>
  <path d="m1140.6 1491.7c-0.3 1.9 0.3 3.8 1.6 5.2l61.3 62.2c-3.6 5.9-7.3 17.2-0.5 34.2-10.8 12-18.3 23.5-20 39-3.9 36 14.1 50.6 22.4 55.3v37.1c0 3.3 2.7 5.9 5.9 5.9h232.9c3.3 0 5.9-2.7 5.9-5.9v-37.1c8.2-4.7 26.3-19.4 22.4-55.3-1.5-14.2-7.9-25.1-17.3-36 11.7-7.2 31.8-26.1 27.6-70.5-4.8-50.1-86-121.9-111.6-143.4 7.1-2.2 17.7-3.6 26.9 3.2 11.7 8.6 26.6 10.7 38.8 5.3 9.1-4 15.5-11.6 18-21.4h32.7c1.4 0 2.8-0.5 3.9-1.5 8.1-7.2 9-25.4 2.2-44.4-10.9-30.7-36.6-50-68.8-51.7-16.3-5.8-34-17-36.7-23.3-1.2-2.8-2.6-12.4-3.9-20.8-4-26.7-6.6-39.7-13.5-43.5-8.8-4.8-82.4-24.8-148.9 26.6-60 46.4-53.9 133.4-50.2 185.3 0.3 4.9 0.7 9.5 0.9 13.6 2.7 46.9 1 63.3-28.9 77.6-1.6 0.8-2.8 2.4-3.1 4.3zm303.9 96.7h-230.6c-6.6-16.7 0.4-24.4 1.3-25.4 4-3.1 44.5-35.3 48.6-75.1 2.2-21.2-6.9-41.4-16.5-62.9-9.4-21.1-19.2-42.8-21.1-69.4-3.7-51.6 35-79.6 35.4-79.9 1.2-0.8 2-2.1 2.4-3.5l13.3-56.7c2.2 0.6 5 1.8 7.5 4.2 5 4.8 7.6 12.9 7.6 24.1 0 2 1 3.9 2.7 5s3.8 1.2 5.7 0.4c0.4-0.2 40.4-17.8 77.7 5.7 6.8 11.9 29.9 23.5 43.5 28.3 0.5 0.2 1.1 0.3 1.7 0.3 39.8 1.7 54.6 31.2 59.1 43.9 5.1 14.3 4.2 25.7 2.1 30.1h-34.2l-38.4-7.3c-3.2-0.6-6.3 1.5-6.9 4.7s1.5 6.3 4.7 6.9l33 6.3c-1.9 5.4-5.5 9.5-10.7 11.8-8.2 3.6-18.8 2-27-4-21.7-16-47-1.1-48.2-0.3-0.8 0.5-36.2 20.9-55.6 0.9-2.3-2.3-6-2.4-8.4-0.1-2.3 2.3-2.4 6-0.1 8.4 9.1 9.3 20.1 12.4 30.8 12.4 15 0 29.2-6.1 35.7-9.4 17.7 14.6 107.1 90.8 111.7 139 4.2 46.8-22.1 59.7-26.8 61.6zm-227.2 101.4h221v28.9h-221zm-4.7-89.5h230.4c9.9 10.9 16.3 20.5 17.7 33.2 3.5 32.1-13.6 42.5-17.7 44.5h-230.4c-4.1-2-21.2-12.3-17.7-44.5 1.3-12.8 7.7-22.4 17.7-33.2zm-56.4-106.1c30.6-17.8 30.8-42.3 28.3-85.1-0.2-4.2-0.6-8.8-0.9-13.8-3.5-49.6-9.4-132.6 45.6-175.1 59.9-46.3 126.8-30.1 135.7-25.7 3.1 3.8 6.1 24 7.8 35 0.6 3.7 1 7 1.5 9.8-29.1-13.5-57.2-7.8-70.5-3.7-1.2-10.6-4.9-18.9-11-24.6-9-8.4-19.9-7.8-20.4-7.8-2.6 0.2-4.8 2-5.4 4.6l-14 59.7c-8.5 6.8-42.3 36.9-38.5 89 2.1 28.6 12.7 52.4 22.1 73.4 9.3 20.8 17.4 38.7 15.5 56.8-3 29.2-30 54.9-40.3 63.8z" fill="#fff"/>
 </g>
</svg>
