<?xml version="1.0" encoding="UTF-8"?>
<svg width="240mm" height="240mm" version="1.1" viewBox="0 0 240 240" xmlns="http://www.w3.org/2000/svg">
 <g transform="matrix(.26458 0 0 .26458 -136.51 -42.727)">
  <g fill="#fff">
   <path d="m846 761.9c-9.9 10.9-16.3 20.5-17.7 33.2-3.5 32.1 13.6 42.5 17.7 44.5h230.4c4.1-2 21.2-12.3 17.7-44.5-1.4-12.8-7.8-22.4-17.7-33.2z"/>
   <path d="m1104.4 570.7c0.2-4.2 0.6-8.8 0.9-13.8 3.5-49.6 9.4-132.6-45.6-175.1-59.9-46.3-126.8-30.1-135.7-25.7-3.1 3.8-6.1 24-7.8 35-0.6 3.7-1 7-1.5 9.8 29.1-13.5 57.2-7.8 70.5-3.7 1.2-10.6 4.9-18.9 11-24.6 9-8.4 19.9-7.8 20.4-7.8 2.6 0.2 4.8 2 5.4 4.6l14 59.7c8.5 6.8 42.3 36.9 38.5 89-2.1 28.6-12.7 52.4-22.1 73.4-9.3 20.8-17.4 38.7-15.5 56.8 3 29.2 30 54.9 40.3 63.8l55.5-56.3c-30.6-17.8-30.8-42.3-28.3-85.1z"/>
   <rect x="850.7" y="851.4" width="221" height="28.9"/>
   <path d="m1075.1 750c6.6-16.7-0.4-24.4-1.3-25.4-4-3.1-44.5-35.3-48.6-75.1-2.2-21.2 6.9-41.4 16.5-62.9 9.4-21.1 19.2-42.8 21.1-69.4 3.7-51.6-35-79.6-35.4-79.9-1.2-0.8-2-2.1-2.4-3.5l-13.3-56.7c-2.2 0.6-5 1.8-7.5 4.2-5 4.8-7.6 12.9-7.6 24.1 0 2-1 3.9-2.7 5s-3.8 1.2-5.7 0.4c-0.4-0.2-40.4-17.8-77.7 5.7-6.8 11.9-29.9 23.5-43.5 28.3-0.5 0.2-1.1 0.3-1.7 0.3-39.8 1.7-54.6 31.2-59.1 43.9-5.1 14.3-4.2 25.7-2.1 30.1h34.2l38.4-7.3c3.2-0.6 6.3 1.5 6.9 4.7s-1.5 6.3-4.7 6.9l-33 6.3c1.9 5.4 5.5 9.5 10.7 11.8 8.2 3.6 18.8 2 27-4 21.7-16 47-1.1 48.2-0.3 0.8 0.5 36.2 20.9 55.6 0.9 2.3-2.3 6-2.4 8.4-0.1 2.3 2.3 2.4 6 0.1 8.4-9.1 9.3-20.1 12.4-30.8 12.4-15 0-29.2-6.1-35.7-9.4-17.7 14.6-107.1 90.8-111.7 139-4.5 46.8 21.8 59.7 26.5 61.6z"/>
  </g>
  <path d="m1145.1 649c-29.9-14.4-31.6-30.7-28.9-77.6 0.2-4.2 0.6-8.7 0.9-13.6 3.7-52 9.8-138.9-50.2-185.3-66.5-51.5-140.1-31.5-148.9-26.7-6.9 3.8-9.5 16.8-13.5 43.5-1.3 8.4-2.7 18-3.9 20.8-2.7 6.3-20.4 17.5-36.7 23.3-32.2 1.7-57.9 21-68.8 51.7-6.8 19-5.8 37.3 2.2 44.4 1.1 1 2.5 1.5 3.9 1.5h32.8c2.5 9.8 8.9 17.4 18 21.4 12.2 5.3 27.1 3.3 38.8-5.3 9.2-6.8 19.8-5.5 26.9-3.2-25.6 21.5-106.8 93.3-111.6 143.4-4.2 44.4 15.9 63.3 27.6 70.5-9.4 11-15.8 21.8-17.3 36-3.9 36 14.1 50.6 22.4 55.3v37.1c0 3.3 2.7 5.9 5.9 5.9h232.9c3.3 0 5.9-2.7 5.9-5.9v-37.1c8.2-4.7 26.3-19.4 22.4-55.3-1.7-15.5-9.1-27-20-39 6.8-16.9 3.1-28.2-0.5-34.2l61.3-62.2c1.3-1.4 1.9-3.3 1.6-5.2-0.2-1.8-1.5-3.4-3.2-4.2zm-327.2 39.4c4.6-48.2 94-124.4 111.7-139 6.5 3.3 20.7 9.4 35.7 9.4 10.6 0 21.7-3.1 30.8-12.4 2.3-2.3 2.2-6.1-0.1-8.4s-6.1-2.2-8.4 0.1c-19.4 20-54.8-0.5-55.6-0.9-1.3-0.8-26.5-15.7-48.2 0.3-8.2 6.1-18.8 7.6-27 4-5.2-2.3-8.9-6.4-10.7-11.8l33-6.3c3.2-0.6 5.3-3.7 4.7-6.9s-3.7-5.3-6.9-4.7l-38.4 7.3h-34.2c-2.1-4.4-3-15.8 2.1-30.1 4.5-12.6 19.2-42.2 59.1-43.9 0.6 0 1.1-0.1 1.7-0.3 13.6-4.7 36.7-16.4 43.5-28.3 37.3-23.5 77.3-5.9 77.7-5.7 1.8 0.8 4 0.7 5.7-0.4s2.7-3 2.7-5c0-11.2 2.5-19.3 7.6-24.1 2.5-2.4 5.3-3.6 7.5-4.2l13.1 56.9c0.3 1.4 1.2 2.7 2.4 3.5 0.4 0.3 39.2 28.2 35.4 79.9-1.9 26.5-11.7 48.3-21.1 69.4-9.6 21.4-18.7 41.6-16.5 62.9 4.1 39.9 44.6 72 48.6 75.1 1 1 7.9 8.7 1.3 25.4h-230.7c-4.7-2.1-30.9-15-26.5-61.8zm253.8 192h-221v-28.9h221zm22.4-85.3c3.5 32.1-13.6 42.5-17.7 44.5h-230.4c-4.1-2-21.2-12.3-17.7-44.5 1.4-12.8 7.8-22.4 17.7-33.2h230.4c9.9 10.8 16.3 20.4 17.7 33.2zm-16.9-83c-10.3-8.9-37.3-34.6-40.3-63.8-1.9-18 6.2-36 15.5-56.8 9.4-21 20.1-44.7 22.1-73.4 3.8-52-30-82.2-38.5-89l-14-59.7c-0.6-2.5-2.8-4.4-5.4-4.6-0.5 0-11.4-0.7-20.4 7.8-6.1 5.7-9.8 13.9-11 24.6-13.3-4.2-41.4-9.8-70.5 3.7 0.5-2.9 1-6.2 1.5-9.8 1.6-11 4.7-31.2 7.8-35 8.9-4.4 75.8-20.6 135.7 25.7 55 42.5 49.2 125.5 45.6 175.1-0.4 5-0.7 9.6-0.9 13.8-2.4 42.8-2.3 67.3 28.3 85.1z"/>
 </g>
</svg>
