<?xml version="1.0" encoding="UTF-8"?>
<svg width="240mm" height="240mm" version="1.1" viewBox="0 0 240 240" xmlns="http://www.w3.org/2000/svg">
 <g transform="matrix(.26458 0 0 .26458 62.123 -47.098)">
  <g fill="#fff">
   <rect x="108.2" y="851.4" width="221" height="28.9"/>
   <path d="m292.4 551.4c-0.4-0.8-0.7-1.6-1.1-2.4-0.1-0.1-0.1-0.2-0.2-0.4-0.6-1.3-1.2-2.6-1.9-3.9-0.2-0.4-0.4-0.8-0.7-1.3-0.3-0.6-0.6-1.1-0.9-1.7l-1.2-2.1c-0.3-0.5-0.6-1-0.9-1.6-0.5-0.9-1.1-1.7-1.6-2.6-0.2-0.4-0.5-0.7-0.7-1.1-0.7-1.1-1.5-2.2-2.3-3.4h-133.4c-0.8 1.1-1.5 2.3-2.3 3.4-0.2 0.4-0.5 0.7-0.7 1.1-0.6 0.9-1.1 1.7-1.6 2.6-0.3 0.5-0.6 1-0.9 1.5-0.4 0.7-0.8 1.4-1.2 2.2-0.3 0.6-0.6 1.1-0.9 1.7-0.2 0.4-0.4 0.8-0.7 1.3-0.7 1.3-1.3 2.6-1.9 3.9-0.1 0.1-0.1 0.2-0.2 0.4-0.4 0.8-0.7 1.6-1.1 2.4-2.8 6.6-4.6 13-5.4 19.1h167.2c-0.8-6.1-2.6-12.5-5.4-19.1z"/>
   <path d="m281.1 519.2c11.4-14.7 17.6-33 17.6-51.7 0-46.6-37.9-84.5-84.5-84.5s-84.5 37.9-84.5 84.5c0 18.7 6.2 36.9 17.6 51.7z"/>
   <path d="m159.6 621.9h112.1c4.5-2.8 20.8-14.1 25.3-33.9 0.4-1.9 0.7-3.7 0.9-5.6h-167.4c0.2 1.9 0.5 3.8 0.9 5.6 4.5 19.8 20.8 31.1 25.3 33.9z"/>
   <path d="m324.3 751.9c-22.7-23.2-50.8-51.8-52.4-118.1h-106.5c-1.6 66.2-29.7 94.9-52.4 118.1-14.2 14.5-25.4 26-27.3 43.2-3.5 32.2 13.7 42.5 17.7 44.5h230.4c4.1-2 21.2-12.3 17.7-44.5-1.8-17.3-13-28.7-27.2-43.2z"/>
  </g>
  <path d="m332.8 743.6c-23-23.5-49-50-49.1-115.6 8.2-6.3 20.5-18.5 24.8-37.1 3.2-13.9 1.4-28.8-5.4-44.5v-0.1l-1.5-3.3c-0.1-0.2-0.2-0.3-0.2-0.5-1.4-2.9-2.9-5.8-4.7-8.7l-1.2-2.1c-0.4-0.6-0.8-1.3-1.2-1.9-0.5-0.8-1.1-1.7-1.6-2.5-0.3-0.5-0.7-1-1-1.6-0.1-0.2-0.2-0.3-0.3-0.5 12.4-16.6 19.2-36.9 19.2-57.8 0-53.1-43.2-96.4-96.4-96.4s-96.4 43.2-96.4 96.4c0 20.8 6.8 41.2 19.2 57.8-0.1 0.2-0.2 0.3-0.3 0.5-0.3 0.5-0.6 1-1 1.4-0.6 0.9-1.2 1.8-1.7 2.6-0.4 0.6-0.8 1.2-1.1 1.8-0.4 0.7-0.9 1.4-1.3 2.2-1.7 2.9-3.2 5.8-4.6 8.6-0.1 0.2-0.2 0.3-0.3 0.5l-1.5 3.3s0 0.1-0.1 0.1c-6.8 15.6-8.6 30.5-5.4 44.5 6.6 28.2 31.4 41.7 32.4 42.2 0.4 0.2 0.8 0.4 1.3 0.5-1.5 61.5-26.7 87.2-49 110-14.4 15-28.1 29.1-30.4 50.4-3.9 36 14.1 50.6 22.4 55.3v37.1c0 3.3 2.7 5.9 5.9 5.9h232.9c3.3 0 5.9-2.7 5.9-5.9v-37.1c8.2-4.7 26.3-19.4 22.4-55.3-2.4-21.3-16.2-35.4-30.7-50.2zm-203.1-276.1c0-46.6 37.9-84.5 84.5-84.5s84.5 37.9 84.5 84.5c0 18.7-6.2 36.9-17.6 51.7h-133.8c-11.4-14.7-17.6-33-17.6-51.7zm6.3 83.9c0.3-0.8 0.7-1.6 1.1-2.4 0.1-0.1 0.1-0.2 0.2-0.4 0.6-1.3 1.2-2.6 1.9-3.9 0.2-0.4 0.4-0.8 0.7-1.3 0.3-0.6 0.6-1.1 0.9-1.7 0.4-0.7 0.8-1.4 1.2-2.2 0.3-0.5 0.6-1 0.9-1.5 0.5-0.9 1.1-1.7 1.6-2.6 0.2-0.4 0.5-0.7 0.7-1.1 0.7-1.1 1.5-2.2 2.3-3.4h133.4c0.8 1.1 1.5 2.3 2.3 3.4 0.2 0.4 0.5 0.7 0.7 1.1 0.6 0.9 1.1 1.7 1.6 2.6 0.3 0.5 0.6 1.1 0.9 1.6l1.2 2.1c0.3 0.6 0.6 1.1 0.9 1.7 0.2 0.4 0.4 0.8 0.7 1.3 0.7 1.3 1.3 2.6 1.9 3.9 0.1 0.1 0.1 0.2 0.2 0.4 0.4 0.8 0.7 1.6 1.1 2.4 2.8 6.6 4.6 13 5.4 19.1h-167.2c0.8-6.1 2.6-12.5 5.4-19.1zm-4.6 36.7c-0.4-1.9-0.7-3.7-0.9-5.6h167.4c-0.2 1.9-0.5 3.8-0.9 5.6-4.5 19.8-20.8 31.1-25.3 33.9h-115c-4.5-2.9-20.8-14.1-25.3-33.9zm197.8 292.3h-221v-28.9h221zm4.7-40.8h-230.4c-4-1.9-21.2-12.3-17.7-44.5 1.9-17.3 13.1-28.7 27.3-43.2 22.7-23.2 50.8-51.8 52.4-118.1h106.5c1.6 66.2 29.7 94.9 52.4 118.1 14.2 14.5 25.4 26 27.3 43.2 3.4 32.1-13.7 42.5-17.8 44.5z"/>
 </g>
</svg>
