<?xml version="1.0" encoding="UTF-8"?>
<svg width="240mm" height="240mm" version="1.1" viewBox="0 0 240 240" xmlns="http://www.w3.org/2000/svg">
 <g transform="matrix(.26458 0 0 .26458 -126.97 -250.5)">
  <path d="m903.2 1144.2c-5.3-6.8-8.2-15-8.2-23.6 0-21.2 17.2-38.4 38.4-38.4s38.4 17.2 38.4 38.4c0 8.6-2.9 16.9-8.2 23.6z"/>
  <rect x="822.9" y="1689.8" width="221" height="28.9"/>
  <path d="m885 1392.3h-7.8c-4.4-2.3-21-11.9-24.7-28.6-0.1-0.5-0.2-1.1-0.3-1.6h162.2c-0.1 0.6-0.2 1.1-0.3 1.7-3.8 16.8-20.3 26.3-24.7 28.5h-7.8z"/>
  <path d="m999.7 1308.2h-132.6c-4.8-3-23.9-17.7-23.9-61.3 0-14.5 5.2-29.7 15.4-45.1l64.1 44.6c2.3 1.6 5.5 1.4 7.6-0.7 2-2 2.3-5.2 0.7-7.6l-46.1-66.7c8.5-7.9 15.8-13.3 18.8-15.4h59.6c8.8 6.3 60.4 44.9 60.4 90.8-0.1 43.7-19.3 58.4-24 61.4z"/>
  <path d="m857.7 1335.6c1.3-2.5 2.8-5 4.5-7.5 0.1-0.2 0.3-0.4 0.4-0.6 0.7-1 1.4-2 2.2-3l0.6-0.9c0.9-1.2 1.9-2.4 2.9-3.6h130.3c1 1.2 2 2.4 2.9 3.6 0.2 0.3 0.4 0.6 0.7 0.9 0.7 1 1.4 2 2.1 2.9 0.2 0.2 0.3 0.5 0.5 0.7 1.7 2.5 3.2 5 4.5 7.4 0 0 0 0.1 0.1 0.1 2.6 5 4.4 9.9 5.2 14.6h-162.2c0.9-4.7 2.6-9.5 5.3-14.6z"/>
  <path d="m831 1568.5c26-43.1 58.1-96.4 59.9-164.4h85c1.8 67.9 33.9 121.3 59.9 164.4 15.4 25.5 28.6 47.5 30.5 65 3.5 32.2-13.7 42.5-17.7 44.5h-230.4c-4.1-2-21.2-12.3-17.7-44.5 1.9-17.5 15.1-39.5 30.5-65z"/>
  <path d="m788.7 1632.2c-3.9 36 14.1 50.6 22.4 55.3v37.1c0 3.3 2.7 5.9 5.9 5.9h232.9c3.3 0 5.9-2.7 5.9-5.9v-37.1c8.2-4.7 26.3-19.4 22.4-55.3-2.2-20.1-16.1-43.2-32.1-69.8-25.2-41.8-56.4-93.6-58.2-158.3h3.1c0.8 0 1.7-0.2 2.4-0.5 1.1-0.5 26.8-12.2 32.5-37.3 2.5-11.2 0.5-23.1-5.8-35.5v-0.1c-1.3-2.6-2.8-5.2-4.6-7.8-0.2-0.4-0.5-0.7-0.7-1.1l-1.2-1.8c-0.4-0.6-0.8-1.1-1.2-1.7-0.4-0.5-0.7-1-1.1-1.5s-0.8-1.1-1.2-1.6c9.2-7.5 25.5-26.8 25.5-68.5 0-46.5-43.7-84.1-61.1-97.3 6-8.5 9.3-18.5 9.3-29 0-27.7-22.5-50.3-50.3-50.3-27.7 0-50.3 22.5-50.3 50.3 0 10.5 3.3 20.6 9.3 29-4.7 3.6-11.8 9.3-19.5 16.8-2.1 2-2.4 5.2-0.7 7.6l30.4 44-42.1-29.3c-2.6-1.8-6.3-1.2-8.2 1.4-13.9 19.2-20.9 38.3-20.9 56.9 0 41.7 16.3 60.9 25.5 68.5-0.4 0.5-0.8 1.1-1.2 1.6s-0.8 1-1.1 1.5c-0.4 0.6-0.8 1.1-1.2 1.7l-1.2 1.8c-0.2 0.4-0.5 0.7-0.7 1.1-1.7 2.6-3.2 5.2-4.6 7.8v0.1c-6.3 12.4-8.3 24.3-5.8 35.5 5.6 25.1 31.4 36.8 32.5 37.3 0.8 0.3 1.6 0.5 2.4 0.5h3.1c-1.8 64.7-33 116.5-58.2 158.3-16.2 26.6-30.1 49.6-32.3 69.7zm183.1-511.7c0 8.6-2.9 16.9-8.2 23.6h-60.5c-5.3-6.8-8.2-15-8.2-23.6 0-21.2 17.2-38.4 38.4-38.4 21.3 0 38.5 17.3 38.5 38.4zm27.9 187.7h-132.6c-4.8-3-23.9-17.7-23.9-61.3 0-14.5 5.2-29.7 15.4-45.1l64.1 44.6c2.3 1.6 5.5 1.4 7.6-0.7 2-2 2.3-5.2 0.7-7.6l-46.1-66.7c8.5-7.9 15.8-13.3 18.8-15.4h59.6c8.8 6.3 60.4 44.9 60.4 90.8-0.1 43.7-19.3 58.4-24 61.4zm14.7 42h-162c0.8-4.7 2.6-9.6 5.2-14.6v-0.1c1.3-2.4 2.8-4.9 4.5-7.4 0.1-0.2 0.3-0.4 0.4-0.6 0.7-1 1.4-2 2.2-3l0.6-0.9c0.9-1.2 1.9-2.4 2.9-3.6h130.3c1 1.2 2 2.4 2.9 3.6 0.2 0.3 0.4 0.6 0.7 0.9 0.7 1 1.4 2 2.1 2.9 0.2 0.2 0.3 0.5 0.5 0.7 1.7 2.5 3.2 5 4.5 7.4 0 0 0 0.1 0.1 0.1 2.5 5.1 4.2 9.9 5.1 14.6zm-32.6 42.1h-104.6c-4.4-2.3-21-11.9-24.7-28.6-0.1-0.5-0.2-1.1-0.3-1.6h162.2c-0.1 0.6-0.2 1.1-0.3 1.7-3.8 16.8-20.3 26.3-24.7 28.5zm-158.9 297.5h221v28.9h-221zm-22.4-56.3c1.9-17.5 15.2-39.5 30.5-65 26-43.1 58.1-96.4 59.9-164.4h85c1.8 67.9 33.9 121.3 59.9 164.4 15.4 25.5 28.6 47.5 30.5 65 3.5 32.2-13.7 42.5-17.7 44.5h-230.4c-4.1-2-21.2-12.4-17.7-44.5z" fill="#fff"/>
 </g>
</svg>
