<?xml version="1.0" encoding="UTF-8"?>
<svg width="240mm" height="240mm" version="1.1" viewBox="0 0 240 240" xmlns="http://www.w3.org/2000/svg">
 <g transform="matrix(.26458 0 0 .26458 -34.781 -57.893)">
  <g fill="#fff">
   <path d="m651.7 532.3c-0.6 2.8-3 4.8-5.8 4.8h-22.4c-1.7 0-3.3-0.7-4.4-2s-1.7-3-1.5-4.6l7.8-65.9h-80.9l7.8 65.9c0.2 1.7-0.3 3.4-1.5 4.6-1.1 1.3-2.7 2-4.4 2h-22.4c-2.8 0-5.3-2-5.8-4.8l-13.4-67.8h-57.4l26.6 106.1h221.8l26.6-106.1h-57.4z"/>
   <polygon points="510.8 621.9 525.9 621.9 644.1 621.9 659.2 621.9 677.8 582.4 492.2 582.4"/>
   <path d="m531.7 633.8c-1.6 66.2-29.7 94.9-52.4 118.1-14.2 14.5-25.4 26-27.3 43.2-3.5 32.2 13.7 42.5 17.7 44.5h230.4c4.1-2 21.2-12.3 17.7-44.5-1.9-17.3-13.1-28.7-27.3-43.2-22.7-23.2-50.8-51.8-52.4-118.1z"/>
   <rect x="474.5" y="851.4" width="221" height="28.9"/>
  </g>
  <path d="m730.1 452.7h-69.8c-2.8 0-5.3 2-5.8 4.8l-13.5 67.7h-10.9l7.8-65.9c0.2-1.7-0.3-3.4-1.5-4.6-1.1-1.3-2.7-2-4.4-2h-94.3c-1.7 0-3.3 0.7-4.4 2s-1.7 3-1.5 4.6l7.8 65.9h-10.6l-13.4-67.8c-0.6-2.8-3-4.8-5.8-4.8h-69.8c-1.8 0-3.5 0.8-4.7 2.3-1.1 1.4-1.5 3.3-1.1 5.1l29.6 117.9c0.7 2.6 3 4.5 5.7 4.5h9.7l22.6 48c1 2.1 3.1 3.4 5.4 3.4h12.8c-1.5 61.3-26.7 87-49 109.8-14.6 14.9-28.3 28.9-30.6 50.2-3.9 36 14.1 50.6 22.4 55.3v37.1c0 3.3 2.7 5.9 5.9 5.9h232.9c3.3 0 5.9-2.7 5.9-5.9v-37.1c8.2-4.7 26.3-19.4 22.4-55.3-2.3-21.3-16.1-35.4-30.6-50.2-22.3-22.8-47.5-48.5-49-109.8h12.8c2.3 0 4.4-1.3 5.4-3.4l22.6-48h9.7c2.7 0 5.1-1.8 5.7-4.5l29.3-117.9c0.4-1.8 0-3.6-1.1-5.1-1.1-1.4-2.8-2.2-4.6-2.2zm-34.6 427.7h-221v-28.9h221zm-4.9-128.5c14.2 14.5 25.4 26 27.3 43.2 3.5 32.1-13.6 42.5-17.7 44.5h-230.4c-4-1.9-21.2-12.3-17.7-44.5 1.9-17.3 13.1-28.7 27.3-43.2 22.7-23.2 50.8-51.8 52.4-118.1h106.5c1.5 66.2 29.6 94.9 52.3 118.1zm-31.4-130h-148.4l-18.6-39.5h185.5zm36.7-51.3h-221.8l-26.6-106.1h57.4l13.4 67.8c0.6 2.8 3 4.8 5.8 4.8h22.4c1.7 0 3.3-0.7 4.4-2s1.7-3 1.5-4.6l-7.8-65.9h80.9l-7.8 65.9c-0.2 1.7 0.3 3.4 1.5 4.6 1.1 1.3 2.7 2 4.4 2h22.4c2.8 0 5.3-2 5.8-4.8l13.4-67.8h57.4z"/>
 </g>
</svg>
