<?xml version="1.0" encoding="UTF-8"?>
<svg width="240mm" height="240mm" version="1.1" viewBox="0 0 240 240" xmlns="http://www.w3.org/2000/svg">
 <g transform="matrix(.26458 0 0 .26458 -330.86 -279.72)">
  <path d="m1637.3 1370.7c0.6 2.8 3 4.8 5.8 4.8h22.4c1.7 0 3.3-0.7 4.4-2s1.7-3 1.5-4.6l-7.8-65.9h80.9l-7.8 65.9c-0.2 1.7 0.3 3.4 1.5 4.6 1.1 1.3 2.7 2 4.4 2h22.4c2.8 0 5.3-2 5.8-4.8l13.4-67.8h57.4l-26.6 106.1h-221.8l-26.6-106.1h57.4z"/>
  <polygon points="1778.1 1460.3 1763.1 1460.3 1644.9 1460.3 1629.8 1460.3 1611.2 1420.8 1796.7 1420.8"/>
  <path d="m1757.2 1472.2c1.6 66.2 29.7 94.9 52.4 118.1 14.2 14.5 25.4 26 27.3 43.2 3.5 32.2-13.7 42.5-17.7 44.5h-230.4c-4.1-2-21.2-12.3-17.7-44.5 1.9-17.3 13.1-28.7 27.3-43.2 22.7-23.2 50.8-51.8 52.4-118.1z"/>
  <rect x="1593.5" y="1689.8" width="221" height="28.9"/>
  <path d="m1554.2 1293.3c-1.1 1.4-1.5 3.3-1.1 5.1l29.6 117.9c0.7 2.6 3 4.5 5.7 4.5h9.7l22.6 48c1 2.1 3.1 3.4 5.4 3.4h12.8c-1.5 61.3-26.7 87-49 109.8-14.6 14.9-28.3 28.9-30.6 50.2-3.9 36 14.1 50.6 22.4 55.3v37.1c0 3.3 2.7 5.9 5.9 5.9h232.9c3.3 0 5.9-2.7 5.9-5.9v-37.1c8.2-4.7 26.3-19.4 22.4-55.3-2.3-21.3-16.1-35.4-30.6-50.2-22.3-22.8-47.5-48.5-49-109.8h12.8c2.3 0 4.4-1.3 5.4-3.4l22.6-48h9.7c2.7 0 5.1-1.8 5.7-4.5l29.6-117.9c0.4-1.8 0-3.6-1.1-5.1-1.1-1.4-2.8-2.3-4.7-2.3h-69.8c-2.8 0-5.3 2-5.8 4.8l-13.4 67.8h-10.9l7.8-65.9c0.2-1.7-0.3-3.4-1.5-4.6-1.1-1.3-2.7-2-4.4-2h-94.3c-1.7 0-3.3 0.7-4.4 2s-1.7 3-1.5 4.6l7.8 65.9h-10.9l-13.4-67.8c-0.6-2.8-3-4.8-5.8-4.8h-69.8c-1.8 0.1-3.6 0.9-4.7 2.3zm39.3 396.5h221v28.9h-221zm57.2-217.6h106.5c1.6 66.2 29.7 94.9 52.4 118.1 14.2 14.5 25.4 26 27.3 43.2 3.5 32.2-13.7 42.5-17.7 44.5h-230.4c-4.1-2-21.2-12.3-17.7-44.5 1.9-17.3 13.1-28.7 27.3-43.2 22.6-23.2 50.7-51.9 52.3-118.1zm-39.5-51.4h185.5l-18.6 39.5h-148.4zm-44.7-117.9h57.4l13.4 67.8c0.6 2.8 3 4.8 5.8 4.8h22.4c1.7 0 3.3-0.7 4.4-2s1.7-3 1.5-4.6l-7.8-65.9h80.9l-7.8 65.9c-0.2 1.7 0.3 3.4 1.5 4.6 1.1 1.3 2.7 2 4.4 2h22.4c2.8 0 5.3-2 5.8-4.8l13.4-67.8h57.4l-26.6 106.1h-221.8z" fill="#fff"/>
 </g>
</svg>
